<?xml version="1.0" standalone="no"?>
<!DOCTYPE svg PUBLIC "-//W3C//DTD SVG 1.1//EN" "http://www.w3.org/Graphics/SVG/1.1/DTD/svg11.dtd">
<svg 
    t="1727500271277" 
    class="icon" 
    viewBox="0 0 1024 1024" 
    version="1.1" 
    xmlns="http://www.w3.org/2000/svg" 
    p-id="12375" 
    xmlns:xlink="http://www.w3.org/1999/xlink" 
    width="77" 
    height="77">

    <path d="M5.1 767.5h253.5c2.8 0 5.1-2.3 5.1-5.1s-2.3-5.1-5.1-5.1H5.1c-2.8 0-5.1 2.3-5.1 5.1s2.3 5.1 5.1 5.1z m314.3 0h55.8c2.8 0 5.1-2.3 5.1-5.1s-2.3-5.1-5.1-5.1h-55.8c-2.8 0-5.1 2.3-5.1 5.1s2.3 5.1 5.1 5.1z m106.5 0h253.5c2.8 0 5.1-2.3 5.1-5.1s-2.3-5.1-5.1-5.1H425.9c-2.8 0-5.1 2.3-5.1 5.1s2.3 5.1 5.1 5.1z m314.4 0H796c2.8 0 5.1-2.3 5.1-5.1s-2.3-5.1-5.1-5.1h-55.8c-2.8 0-5.1 2.3-5.1 5.1s2.4 5.1 5.2 5.1z m106.4 0h172.4c2.8 0 5.1-2.3 5.1-5.1s-2.3-5.1-5.1-5.1H846.7c-2.8 0-5.1 2.3-5.1 5.1s2.3 5.1 5.1 5.1z" fill="#311504" p-id="12376"></path>
    <path d="M311.9 770.1c-9.4-7.9-15.3-19.7-15.3-33 0-16.5 9.2-30.8 22.8-38H147c-23.8 0-43.1-19.3-43.1-43.1s19.3-43.1 43.1-43.1h441.1c23.8 0 43.1 19.3 43.1 43.1 0 16.5-9.2 30.8-22.8 38h172.4c23.8 0 43.1 19.3 43.1 43.1s-19.3 43.1-43.1 43.1H539.9c9.4 7.9 15.3 19.7 15.3 33 0 23.8-19.3 43.1-43.1 43.1H71c-23.8 0-43.1-19.3-43.1-43.1s19.3-43.1 43.1-43.1h240.9zM719.2 227.5H605.9c-11.2 0-20.3 9.1-20.3 20.3 0 11.2 9.1 20.3 20.3 20.3h212.9c11.2 0 20.3-9.1 20.3-20.3 0-6.1-2.7-11.5-6.9-15.2h113.3c11.2 0 20.3-9.1 20.3-20.3 0-11.2-9.1-20.3-20.3-20.3H732.6c-11.2 0-20.3 9.1-20.3 20.3 0.1 6.1 2.7 11.5 6.9 15.2z m190.9 81.2H697.2c-11.2 0-20.3-9.1-20.3-20.3 0-11.2 9.1-20.3 20.3-20.3h212.9c11.2 0 20.3 9.1 20.3 20.3 0 11.2-9.1 20.3-20.3 20.3zM335.4 389.8h113.3c11.2 0 20.3-9.1 20.3-20.3 0-11.2-9.1-20.3-20.3-20.3H235.8c-11.2 0-20.3 9.1-20.3 20.3 0 6.1 2.7 11.5 6.9 15.2H109c-11.2 0-20.3 9.1-20.3 20.3 0 11.2 9.1 20.3 20.3 20.3h213c11.2 0 20.3-9.1 20.3-20.3-0.1-6.1-2.7-11.5-6.9-15.2z m-190.9-81.1h212.9c11.2 0 20.3 9.1 20.3 20.3 0 11.2-9.1 20.3-20.3 20.3H144.5c-11.2 0-20.3-9.1-20.3-20.3 0-11.3 9.1-20.3 20.3-20.3z" fill="#85B4F7" p-id="12377"></path>
    <path d="M139.4 654.8C208.1 774.4 337 854.9 484.8 854.9c219.8 0 398-178.2 398-398 0-155.9-89.6-290.8-220.1-356.1 33.5 58.3 52.6 125.9 52.6 197.9 0 219.8-178.2 398-398 398-63.9 0-124.3-15.1-177.9-41.9z" fill="#FFCE1F" p-id="12378"></path>
    <path d="M687.7 149c-6.8-16.7-14.6-32.7-23.5-48.2C795 166.2 884.8 301.4 884.8 457.6c0 220.2-178.6 398.7-399 398.7-8.5 0-17-0.3-25.4-0.8 208.5-13.1 373.5-186.2 373.5-397.9 0-124.4-56.9-235.5-146.2-308.6z" fill="#CD7E24" p-id="12379"></path>
    <path d="M84.3 657.4c-1.4-2.4-0.6-5.5 1.9-6.9 2.4-1.4 5.5-0.6 6.9 1.9C135 725.3 199.4 783.2 276.4 817c2.6 1.1 3.7 4.1 2.6 6.7-1.1 2.6-4.1 3.7-6.7 2.6-79-34.7-145-94.1-188-168.9z m192.8 170.9c-2.6-1.1-3.8-4.1-2.7-6.6 1.1-2.6 4.1-3.8 6.6-2.7 30.6 13.2 63.3 19.7 95.7 19.7 85.2 0 163.6-40.6 221.8-114.1 2-2.5 5.5-2.9 8.1-0.9s2.9 5.5 0.9 8.1c-59.7 73.7-143.4 116.4-239.7 116.4-32.7 0-67.2-6.5-98.2-19.3z" fill="#4E8BD9" p-id="12380"></path>
    <path d="M653.9 465.7c-3.7 0-7.2-2.5-8.2-6.3-1.1-4.1 1.4-8.4 5.5-9.5 15.5-4.1 26.3-18.1 26.3-33.7 0-8.8-3.5-17.1-9.8-22.9-5.8-5.3-13.4-8.2-21.5-8.2h-86.5c-4.5 0-8.7-2.4-11-6.4-1.9-3.6-0.5-8.1 3.1-10l128.3-65.9c3.5-1.8 7.7-0.6 9.5 2.9 1.8 3.5 0.6 7.7-2.9 9.5l-128.3 65.9c0.4 0 0.8-0.1 1.1-0.1h86.5c14.6 0 28.5 4.7 39.8 13.4 11.4 9 18 22.4 18 37.4 0 12.8-4.9 24.9-13.7 34.3-8.5 8.9-19.8 13.9-31.8 14.1-0.2 0-0.3 0-0.5 0z" fill="#2D4C72" p-id="12381"></path>
</svg>
